<mxfile modified="2022-08-10T10:28:01.010Z" host="app.diagrams.net" agent="5.0 (Windows NT 10.0; Win64; x64) AppleWebKit/537.36 (KHTML, like Gecko) Chrome/103.0.5060.134 Safari/537.36 Edg/103.0.1264.77" etag="BXhD1vumFo4vyuQd9VJl" version="20.2.3" type="github">
  <diagram id="Ht1M8jgEwFfnCIfOTk4-" name="Page-1">
    <mxGraphModel dx="1016" dy="544" grid="1" gridSize="10" guides="1" tooltips="1" connect="1" arrows="1" fold="1" page="1" pageScale="1" pageWidth="1169" pageHeight="827" math="0" shadow="0">
      <root>
        <mxCell id="0" />
        <mxCell id="1" parent="0" />
        <mxCell id="UEzPUAAOIrF-is8g5C7q-128" style="edgeStyle=orthogonalEdgeStyle;rounded=0;orthogonalLoop=1;jettySize=auto;html=1;startArrow=open;startFill=0;endArrow=open;endFill=0;strokeWidth=2;strokeColor=#808080;entryX=0.5;entryY=0;entryDx=0;entryDy=0;entryPerimeter=0;" parent="1" edge="1">
          <mxGeometry relative="1" as="geometry">
            <Array as="points" />
            <mxPoint x="408.5" y="276.41" as="targetPoint" />
            <mxPoint x="408.4999999999998" y="221.93690391423377" as="sourcePoint" />
          </mxGeometry>
        </mxCell>
        <mxCell id="_8wMgT94-2q7rvWga1ed-14" value="&lt;b&gt;Gateway&lt;/b&gt;" style="sketch=0;aspect=fixed;pointerEvents=1;shadow=0;dashed=0;html=1;strokeColor=none;labelPosition=left;verticalLabelPosition=middle;verticalAlign=middle;align=right;fillColor=#00188D;shape=mxgraph.mscae.enterprise.server_generic;spacingLeft=4;fontColor=#545B64;spacingRight=12;" parent="1" vertex="1">
          <mxGeometry x="391.5" y="285.40999999999997" width="34" height="70.83" as="geometry" />
        </mxCell>
        <mxCell id="_8wMgT94-2q7rvWga1ed-30" style="edgeStyle=orthogonalEdgeStyle;rounded=0;orthogonalLoop=1;jettySize=auto;html=1;startArrow=open;startFill=0;endArrow=open;endFill=0;strokeWidth=2;strokeColor=#808080;exitX=0.5;exitY=1;exitDx=0;exitDy=0;exitPerimeter=0;entryX=0.5;entryY=0;entryDx=0;entryDy=0;entryPerimeter=0;" parent="1" edge="1">
          <mxGeometry relative="1" as="geometry">
            <Array as="points">
              <mxPoint x="409" y="387" />
              <mxPoint x="409" y="387" />
            </Array>
            <mxPoint x="408.5" y="363.24" as="sourcePoint" />
            <mxPoint x="408.5" y="421" as="targetPoint" />
          </mxGeometry>
        </mxCell>
        <mxCell id="_8wMgT94-2q7rvWga1ed-32" value="SOAP API" style="outlineConnect=0;fontColor=#545B64;gradientColor=#945DF2;gradientDirection=north;fillColor=#5A30B5;strokeColor=#ffffff;dashed=0;verticalLabelPosition=middle;verticalAlign=middle;align=left;html=1;fontSize=12;fontStyle=1;aspect=fixed;shape=mxgraph.aws4.resourceIcon;resIcon=mxgraph.aws4.api_gateway;labelBackgroundColor=#ffffff;labelPosition=right;spacingRight=12;spacingLeft=4;" parent="1" vertex="1">
          <mxGeometry x="425.5" y="230" width="34.75" height="34.75" as="geometry" />
        </mxCell>
        <mxCell id="_8wMgT94-2q7rvWga1ed-37" value="OPC UA" style="outlineConnect=0;fontColor=#545B64;gradientColor=#945DF2;gradientDirection=north;fillColor=#5A30B5;strokeColor=#ffffff;dashed=0;verticalLabelPosition=middle;verticalAlign=middle;align=left;html=1;fontSize=12;fontStyle=1;aspect=fixed;shape=mxgraph.aws4.resourceIcon;resIcon=mxgraph.aws4.api_gateway;labelBackgroundColor=#ffffff;labelPosition=right;spacingRight=12;spacingLeft=4;" parent="1" vertex="1">
          <mxGeometry x="425.5" y="378.75" width="34.75" height="34.75" as="geometry" />
        </mxCell>
        <mxCell id="mWZu2PUPvJXcQn3sblA--3" value="&lt;span style=&quot;font-size: 7px;&quot;&gt;Asynchronous C# windows service&lt;br&gt;acts as a client for OPC UA and&amp;nbsp;ERP&lt;br&gt;Data content is not used&lt;br&gt;&lt;/span&gt;" style="text;html=1;align=center;verticalAlign=middle;resizable=0;points=[];autosize=1;strokeColor=none;fillColor=none;" parent="1" vertex="1">
          <mxGeometry x="425" y="290.83" width="140" height="60" as="geometry" />
        </mxCell>
        <mxCell id="mWZu2PUPvJXcQn3sblA--5" value="&#xa;&lt;span style=&quot;color: rgb(84, 91, 100); font-family: Helvetica; font-size: 12px; font-style: normal; font-variant-ligatures: normal; font-variant-caps: normal; font-weight: 700; letter-spacing: normal; orphans: 2; text-align: right; text-indent: 0px; text-transform: none; widows: 2; word-spacing: 0px; -webkit-text-stroke-width: 0px; background-color: rgb(255, 255, 255); text-decoration-thickness: initial; text-decoration-style: initial; text-decoration-color: initial; float: none; display: inline !important;&quot;&gt;AT2Rad ERP System&lt;/span&gt;&#xa;&#xa;" style="points=[];aspect=fixed;html=1;align=right;shadow=0;dashed=0;image;image=img/lib/allied_telesis/computer_and_terminals/Personal_Computer_with_Server.svg;fontSize=7;labelPosition=left;verticalLabelPosition=middle;verticalAlign=middle;spacingLeft=4;spacingRight=12;" parent="1" vertex="1">
          <mxGeometry x="370.79999999999995" y="130" width="89.7" height="89.7" as="geometry" />
        </mxCell>
        <mxCell id="tFMQAyc6qyEgcFXQ1YKb-1" value="&lt;b&gt;Siemens PLC&lt;/b&gt;" style="sketch=0;outlineConnect=0;fontColor=#232F3E;gradientColor=none;fillColor=#3F8624;strokeColor=none;dashed=0;verticalLabelPosition=middle;verticalAlign=middle;align=right;html=1;fontSize=12;fontStyle=0;aspect=fixed;pointerEvents=1;shape=mxgraph.aws4.iot_thing_plc;labelPosition=left;spacingRight=12;" parent="1" vertex="1">
          <mxGeometry x="369.5" y="430" width="78" height="78" as="geometry" />
        </mxCell>
      </root>
    </mxGraphModel>
  </diagram>
</mxfile>
